<svg width="579" height="447" viewBox="0 0 579 447" fill="none" xmlns="http://www.w3.org/2000/svg">
<path d="M92.9455 116.434C95.1071 95.5394 112.687 79.4 134.159 79.4C141.94 79.4 149.289 81.5615 155.63 85.4523C161.97 80.9851 169.608 78.3913 177.965 78.3913C197.419 78.3913 213.559 92.8015 216.296 111.535C234.453 115.714 248.143 131.997 248.143 151.595C248.143 174.363 229.698 192.664 207.074 192.664H107.932C86.0287 192.664 68.4483 174.939 68.4483 153.18C68.3042 136.464 78.5354 122.342 92.9455 116.434Z" fill="#0088FF"/>
<path opacity="0.6" d="M193.817 147.848C194.249 145.543 194.537 143.093 194.537 140.643C194.537 138.193 194.249 135.744 193.817 133.438L188.197 132.718C187.476 130.412 186.612 128.25 185.459 126.089L188.773 121.622C186.179 117.587 182.721 114.128 178.686 111.535L174.219 114.993C172.201 113.84 169.896 112.976 167.59 112.255L166.87 106.635C164.564 106.203 162.114 105.915 159.665 105.915C157.215 105.915 154.765 106.203 152.459 106.635L151.739 112.255C149.433 112.831 147.272 113.84 145.11 114.993L140.643 111.679C136.608 114.273 133.15 117.731 130.556 121.766L133.87 126.233C132.718 128.25 131.853 130.412 131.132 132.862L125.512 133.582C125.08 135.888 124.792 138.337 124.792 140.787C124.792 143.237 125.08 145.687 125.512 147.992L131.132 148.857C131.853 151.163 132.718 153.324 133.87 155.486L130.412 160.097C133.006 164.132 136.464 167.59 140.499 170.184L144.966 166.725C146.984 167.878 149.289 168.743 151.595 169.463L152.459 175.083C154.765 175.516 157.215 175.804 159.665 175.804C162.114 175.804 164.564 175.516 166.87 175.083L167.734 169.463C170.04 168.887 172.201 167.878 174.363 166.725L178.83 170.184C182.865 167.59 186.323 164.132 188.917 160.097L185.459 155.63C186.612 153.612 187.476 151.307 188.197 149.001L193.817 147.848ZM159.665 157.503C150.442 157.503 142.949 150.01 142.949 140.643C142.949 131.421 150.442 123.783 159.665 123.783C168.887 123.783 176.524 131.276 176.524 140.643C176.38 149.866 168.887 157.503 159.665 157.503Z" fill="white"/>
<path d="M318.464 77.5267C320.626 56.632 338.206 40.4926 359.677 40.4926C367.459 40.4926 374.808 42.6541 381.148 46.5449C387.489 42.0777 395.126 39.4839 403.484 39.4839C422.938 39.4839 439.077 53.894 441.815 72.6272C459.972 76.8062 473.661 93.0896 473.661 112.687C473.661 135.455 455.216 153.756 432.592 153.756H333.595C311.691 153.756 294.111 136.032 294.111 114.273C293.823 97.5568 304.054 83.2907 318.464 77.5267Z" fill="#0088FF"/>
<g opacity="0.6">
<path opacity="0.6" d="M366.018 112.543C366.018 106.923 369.044 103.897 372.935 103.897C376.97 103.897 379.852 107.067 379.852 112.543C379.852 118.019 376.826 121.189 372.935 121.189C368.9 121.189 366.018 118.019 366.018 112.543ZM377.402 112.543C377.402 108.22 375.529 106.059 372.935 106.059C370.197 106.059 368.468 108.22 368.468 112.543C368.468 116.866 370.341 119.028 372.935 119.028C375.529 119.028 377.402 116.866 377.402 112.543Z" fill="white"/>
<path opacity="0.6" d="M382.158 112.543C382.158 106.923 385.184 103.897 389.075 103.897C393.109 103.897 395.991 107.067 395.991 112.543C395.991 118.019 392.965 121.189 389.075 121.189C385.184 121.189 382.158 118.019 382.158 112.543ZM393.686 112.543C393.686 108.22 391.813 106.059 389.219 106.059C386.481 106.059 384.752 108.22 384.752 112.543C384.752 116.866 386.625 119.028 389.219 119.028C391.813 119.028 393.686 116.866 393.686 112.543Z" fill="white"/>
<path opacity="0.6" d="M403.629 103.897V120.901H401.179V106.059H397.288V103.897H403.629Z" fill="white"/>
<path opacity="0.6" d="M407.375 112.543C407.375 106.923 410.402 103.897 414.292 103.897C418.327 103.897 421.209 107.067 421.209 112.543C421.209 118.019 418.183 121.189 414.292 121.189C410.258 121.189 407.375 118.019 407.375 112.543ZM418.76 112.543C418.76 108.22 416.886 106.059 414.292 106.059C411.554 106.059 409.825 108.22 409.825 112.543C409.825 116.866 411.699 119.028 414.292 119.028C417.03 119.028 418.76 116.866 418.76 112.543Z" fill="white"/>
<path opacity="0.6" d="M428.846 103.897V120.901H426.397V106.059H422.506V103.897H428.846Z" fill="white"/>
<path opacity="0.6" d="M432.593 112.543C432.593 106.923 435.619 103.897 439.51 103.897C443.545 103.897 446.427 107.067 446.427 112.543C446.427 118.019 443.401 121.189 439.51 121.189C435.475 121.189 432.593 118.019 432.593 112.543ZM443.977 112.543C443.977 108.22 442.104 106.059 439.51 106.059C436.772 106.059 435.043 108.22 435.043 112.543C435.043 116.866 436.916 119.028 439.51 119.028C442.104 119.028 443.977 116.866 443.977 112.543Z" fill="white"/>
<path opacity="0.6" d="M453.92 103.897V120.901H451.47V106.059H447.58V103.897H453.92Z" fill="white"/>
</g>
<path d="M189.638 298.723C189.638 278.981 176.669 262.409 158.944 256.789C156.351 236.327 138.914 220.619 117.875 220.619C109.373 220.619 101.448 223.213 94.9633 227.536C88.3346 223.213 80.5531 220.619 72.0511 220.619C50.8682 220.619 33.576 236.471 30.9822 256.789C13.1136 262.409 0.288574 278.981 0.288574 298.723C0.288574 322.932 20.0305 342.673 44.2396 342.673H146.84C170.473 342.241 189.638 322.787 189.638 298.723Z" fill="#0088FF"/>
<path d="M94.3865 227.392C87.9019 223.213 80.1205 220.619 71.7626 220.619C50.5796 220.619 33.2875 236.471 30.6936 256.789C12.825 262.409 0 278.981 0 298.723C0 322.932 19.7419 342.673 43.951 342.673H74.7887L94.3865 227.392Z" fill="#1D95FF"/>
<path d="M201.886 321.202H89.7749V329.56H201.886V321.202Z" fill="#15354E"/>
<path d="M201.886 280.854H89.7749V289.212H201.886V280.854Z" fill="#15354E"/>
<path d="M206.93 365.009H84.2992C81.129 365.009 78.5352 362.415 78.5352 359.245V333.307C78.5352 330.137 81.129 327.543 84.2992 327.543H206.93C210.1 327.543 212.694 330.137 212.694 333.307V359.245C212.694 362.415 210.1 365.009 206.93 365.009Z" fill="#D6E0EA"/>
<path d="M134.158 327.543L128.106 365.009H84.2992C81.129 365.009 78.5352 362.415 78.5352 359.245V333.307C78.5352 330.137 81.129 327.543 84.2992 327.543H134.158Z" fill="#EDEDED"/>
<path d="M204.356 356.813V335.774H86.625V356.813H204.356Z" fill="#15354E"/>
<path d="M195.113 346.276C195.113 348.293 193.528 349.878 191.511 349.878C189.493 349.878 187.908 348.293 187.908 346.276C187.908 344.259 189.493 342.673 191.511 342.673C193.528 342.673 195.113 344.259 195.113 346.276Z" fill="#0088FF"/>
<path d="M179.55 346.276C179.55 348.005 178.109 349.446 176.38 349.446C174.65 349.446 173.209 348.005 173.209 346.276C173.209 344.547 174.65 343.106 176.38 343.106C178.109 343.25 179.55 344.547 179.55 346.276Z" fill="#0088FF"/>
<path d="M164.419 346.276C164.419 348.005 162.978 349.446 161.249 349.446C159.52 349.446 158.079 348.005 158.079 346.276C158.079 344.547 159.52 343.106 161.249 343.106C162.978 343.25 164.419 344.547 164.419 346.276Z" fill="white"/>
<path d="M149.289 346.276C149.289 348.005 147.848 349.446 146.118 349.446C144.389 349.446 142.948 348.005 142.948 346.276C142.948 344.547 144.389 343.106 146.118 343.106C147.848 343.25 149.289 344.547 149.289 346.276Z" fill="#0088FF"/>
<path d="M134.158 346.276C134.158 348.005 132.717 349.446 130.988 349.446C129.258 349.446 127.817 348.005 127.817 346.276C127.817 344.547 129.258 343.106 130.988 343.106C132.861 343.25 134.158 344.547 134.158 346.276Z" fill="white"/>
<path d="M206.93 323.94H84.2992C81.129 323.94 78.5352 321.346 78.5352 318.176V292.238C78.5352 289.068 81.129 286.474 84.2992 286.474H206.93C210.1 286.474 212.694 289.068 212.694 292.238V318.176C212.694 321.346 210.1 323.94 206.93 323.94Z" fill="#D6E0EA"/>
<path d="M140.787 286.474L134.735 323.94H84.1552C80.9849 323.94 78.3911 321.346 78.3911 318.176V292.238C78.3911 289.068 80.9849 286.474 84.1552 286.474H140.787Z" fill="#EDEDED"/>
<path d="M204.338 315.725V294.687H86.6069V315.725H204.338Z" fill="#15354E"/>
<path d="M206.93 283.592H84.2992C81.129 283.592 78.5352 280.998 78.5352 277.828V251.889C78.5352 248.719 81.129 246.125 84.2992 246.125H206.93C210.1 246.125 212.694 248.719 212.694 251.889V277.828C212.694 280.998 210.1 283.592 206.93 283.592Z" fill="#D6E0EA"/>
<path d="M147.416 245.981L141.363 283.448H84.2992C81.129 283.448 78.5352 280.854 78.5352 277.684V251.745C78.5352 248.575 81.129 245.981 84.2992 245.981H147.416Z" fill="#EDEDED"/>
<path d="M204.389 275.283V254.245L86.6577 254.245V275.283H204.389Z" fill="#15354E"/>
<path d="M191.511 308.81C193.5 308.81 195.113 307.197 195.113 305.207C195.113 303.217 193.5 301.604 191.511 301.604C189.521 301.604 187.908 303.217 187.908 305.207C187.908 307.197 189.521 308.81 191.511 308.81Z" fill="#0088FF"/>
<path d="M179.55 305.207C179.55 306.936 178.109 308.377 176.38 308.377C174.65 308.377 173.209 306.936 173.209 305.207C173.209 303.478 174.65 302.037 176.38 302.037C178.109 302.181 179.55 303.478 179.55 305.207Z" fill="#0088FF"/>
<path d="M164.419 305.207C164.419 306.936 162.978 308.377 161.249 308.377C159.52 308.377 158.079 306.936 158.079 305.207C158.079 303.478 159.52 302.037 161.249 302.037C162.978 302.181 164.419 303.478 164.419 305.207Z" fill="white"/>
<path d="M149.289 305.207C149.289 306.936 147.848 308.377 146.118 308.377C144.389 308.377 142.948 306.936 142.948 305.207C142.948 303.478 144.389 302.037 146.118 302.037C147.848 302.181 149.289 303.478 149.289 305.207Z" fill="#0088FF"/>
<path d="M134.158 305.207C134.158 306.936 132.717 308.377 130.988 308.377C129.258 308.377 127.817 306.936 127.817 305.207C127.817 303.478 129.258 302.037 130.988 302.037C132.861 302.181 134.158 303.478 134.158 305.207Z" fill="white"/>
<path d="M195.113 264.714C195.113 266.732 193.528 268.317 191.511 268.317C189.493 268.317 187.908 266.732 187.908 264.714C187.908 262.697 189.493 261.112 191.511 261.112C193.528 261.112 195.113 262.841 195.113 264.714Z" fill="#0088FF"/>
<path d="M179.55 264.715C179.55 266.444 178.109 267.885 176.38 267.885C174.65 267.885 173.209 266.444 173.209 264.715C173.209 262.985 174.65 261.544 176.38 261.544C178.109 261.688 179.55 262.985 179.55 264.715Z" fill="white"/>
<path d="M164.419 264.715C164.419 266.444 162.978 267.885 161.249 267.885C159.52 267.885 158.079 266.444 158.079 264.715C158.079 262.985 159.52 261.544 161.249 261.544C162.978 261.688 164.419 262.985 164.419 264.715Z" fill="white"/>
<path d="M149.289 264.715C149.289 266.444 147.848 267.885 146.118 267.885C144.389 267.885 142.948 266.444 142.948 264.715C142.948 262.985 144.389 261.544 146.118 261.544C147.848 261.688 149.289 262.985 149.289 264.715Z" fill="#0088FF"/>
<path d="M134.158 264.715C134.158 266.444 132.717 267.885 130.988 267.885C129.258 267.885 127.817 266.444 127.817 264.715C127.817 262.985 129.258 261.544 130.988 261.544C132.861 261.688 134.158 262.985 134.158 264.715Z" fill="#0088FF"/>
<path d="M368.613 307.945C368.613 292.382 358.381 279.269 344.404 274.802C342.386 258.662 328.552 246.27 311.981 246.27C305.208 246.27 299.012 248.287 293.824 251.745C288.636 248.287 282.44 246.27 275.667 246.27C258.951 246.27 245.262 258.806 243.244 274.802C229.122 279.269 219.035 292.382 219.035 307.945C219.035 327.111 234.598 342.674 253.764 342.674H334.893C353.482 342.241 368.613 326.966 368.613 307.945Z" fill="#0088FF"/>
<path d="M293.391 251.601C288.203 248.287 282.151 246.27 275.522 246.27C258.806 246.27 245.117 258.806 243.099 274.802C228.977 279.269 218.89 292.382 218.89 307.945C218.89 327.111 234.453 342.674 253.619 342.674H277.972L293.391 251.601Z" fill="#1D95FF"/>
<path d="M350.022 381.149H237.911V389.506H350.022V381.149Z" fill="#15354E"/>
<path d="M350.022 340.656H237.911V349.014H350.022V340.656Z" fill="#15354E"/>
<path d="M355.065 424.956H232.435C229.265 424.956 226.671 422.362 226.671 419.191V393.253C226.671 390.083 229.265 387.489 232.435 387.489H355.065C358.236 387.489 360.829 390.083 360.829 393.253V419.191C360.829 422.362 358.236 424.956 355.065 424.956Z" fill="#D6E0EA"/>
<path d="M282.294 387.345L276.242 424.811H232.435C229.265 424.811 226.671 422.218 226.671 419.047V393.109C226.671 389.939 229.265 387.345 232.435 387.345H282.294Z" fill="#EDEDED"/>
<path d="M352.562 416.647V395.608H234.831V416.647H352.562Z" fill="#15354E"/>
<path d="M343.25 406.078C343.25 408.096 341.664 409.681 339.647 409.681C337.63 409.681 336.044 408.096 336.044 406.078C336.044 404.061 337.63 402.476 339.647 402.476C341.664 402.476 343.25 404.205 343.25 406.078Z" fill="#0088FF"/>
<path d="M327.686 406.078C327.686 407.807 326.245 409.248 324.516 409.248C322.787 409.248 321.346 407.807 321.346 406.078C321.346 404.349 322.787 402.908 324.516 402.908C326.245 403.052 327.686 404.493 327.686 406.078Z" fill="#0088FF"/>
<path d="M312.555 406.078C312.555 407.807 311.114 409.248 309.385 409.248C307.656 409.248 306.215 407.807 306.215 406.078C306.215 404.349 307.656 402.908 309.385 402.908C311.114 403.052 312.555 404.493 312.555 406.078Z" fill="white"/>
<path d="M297.425 406.078C297.425 407.807 295.984 409.248 294.255 409.248C292.525 409.248 291.084 407.807 291.084 406.078C291.084 404.349 292.525 402.908 294.255 402.908C295.984 403.052 297.425 404.493 297.425 406.078Z" fill="#0088FF"/>
<path d="M282.294 406.078C282.294 407.807 280.853 409.248 279.124 409.248C277.395 409.248 275.954 407.807 275.954 406.078C275.954 404.349 277.395 402.908 279.124 402.908C280.997 403.052 282.294 404.493 282.294 406.078Z" fill="white"/>
<path d="M355.065 383.887H232.435C229.265 383.887 226.671 381.293 226.671 378.123V352.184C226.671 349.014 229.265 346.42 232.435 346.42H355.065C358.236 346.42 360.829 349.014 360.829 352.184V378.123C360.829 381.293 358.236 383.887 355.065 383.887Z" fill="#D6E0EA"/>
<path d="M288.923 346.276L282.871 383.743H232.291C229.121 383.743 226.527 381.149 226.527 377.978V352.04C226.527 348.87 229.121 346.276 232.291 346.276H288.923Z" fill="#EDEDED"/>
<path d="M352.543 375.56V354.521H234.813V375.56H352.543Z" fill="#15354E"/>
<path d="M355.065 343.394H232.435C229.265 343.394 226.671 340.8 226.671 337.63V311.692C226.671 308.522 229.265 305.928 232.435 305.928H355.065C358.236 305.928 360.829 308.522 360.829 311.692V337.63C360.829 340.8 358.236 343.394 355.065 343.394Z" fill="#D6E0EA"/>
<path d="M295.551 305.928L289.499 343.394H232.435C229.265 343.394 226.671 340.8 226.671 337.63V311.692C226.671 308.522 229.265 305.928 232.435 305.928H295.551Z" fill="#EDEDED"/>
<path d="M352.594 335.118V314.079H234.863V335.118H352.594Z" fill="#15354E"/>
<path d="M343.25 365.009C343.25 367.027 341.664 368.612 339.647 368.612C337.63 368.612 336.044 367.027 336.044 365.009C336.044 362.992 337.63 361.407 339.647 361.407C341.664 361.407 343.25 363.136 343.25 365.009Z" fill="#0088FF"/>
<path d="M327.686 365.009C327.686 366.739 326.245 368.18 324.516 368.18C322.787 368.18 321.346 366.739 321.346 365.009C321.346 363.28 322.787 361.839 324.516 361.839C326.245 361.983 327.686 363.28 327.686 365.009Z" fill="#0088FF"/>
<path d="M312.555 365.009C312.555 366.739 311.114 368.18 309.385 368.18C307.656 368.18 306.215 366.739 306.215 365.009C306.215 363.28 307.656 361.839 309.385 361.839C311.114 361.983 312.555 363.28 312.555 365.009Z" fill="white"/>
<path d="M297.425 365.009C297.425 366.739 295.984 368.18 294.255 368.18C292.525 368.18 291.084 366.739 291.084 365.009C291.084 363.28 292.525 361.839 294.255 361.839C295.984 361.983 297.425 363.28 297.425 365.009Z" fill="#0088FF"/>
<path d="M282.294 365.009C282.294 366.739 280.853 368.18 279.124 368.18C277.395 368.18 275.954 366.739 275.954 365.009C275.954 363.28 277.395 361.839 279.124 361.839C280.997 361.983 282.294 363.28 282.294 365.009Z" fill="white"/>
<path d="M343.25 324.661C343.25 326.678 341.664 328.263 339.647 328.263C337.63 328.263 336.044 326.678 336.044 324.661C336.044 322.643 337.63 321.058 339.647 321.058C341.664 321.058 343.25 322.643 343.25 324.661Z" fill="#0088FF"/>
<path d="M327.686 324.661C327.686 326.39 326.245 327.831 324.516 327.831C322.787 327.831 321.346 326.39 321.346 324.661C321.346 322.932 322.787 321.491 324.516 321.491C326.245 321.491 327.686 322.932 327.686 324.661Z" fill="white"/>
<path d="M312.555 324.661C312.555 326.39 311.114 327.831 309.385 327.831C307.656 327.831 306.215 326.39 306.215 324.661C306.215 322.932 307.656 321.491 309.385 321.491C311.114 321.491 312.555 322.932 312.555 324.661Z" fill="white"/>
<path d="M297.425 324.661C297.425 326.39 295.984 327.831 294.255 327.831C292.525 327.831 291.084 326.39 291.084 324.661C291.084 322.932 292.525 321.491 294.255 321.491C295.984 321.491 297.425 322.932 297.425 324.661Z" fill="#0088FF"/>
<path d="M282.294 324.661C282.294 326.39 280.853 327.831 279.124 327.831C277.395 327.831 275.954 326.39 275.954 324.661C275.954 322.932 277.395 321.491 279.124 321.491C280.997 321.491 282.294 322.932 282.294 324.661Z" fill="#0088FF"/>
<path d="M579.001 298.723C579.001 278.981 566.032 262.409 548.307 256.789C545.713 236.327 528.277 220.619 507.238 220.619C498.736 220.619 490.811 223.213 484.326 227.536C477.697 223.213 469.916 220.619 461.414 220.619C440.231 220.619 422.939 236.471 420.345 256.789C402.476 262.409 389.651 278.981 389.651 298.723C389.651 322.932 409.393 342.673 433.602 342.673H536.203C559.835 342.241 579.001 322.787 579.001 298.723Z" fill="#0088FF"/>
<path d="M483.893 227.392C477.408 223.213 469.627 220.619 461.269 220.619C440.086 220.619 422.794 236.471 420.2 256.789C402.331 262.409 389.506 278.981 389.506 298.723C389.506 322.932 409.248 342.673 433.457 342.673H464.295L483.893 227.392Z" fill="#1D95FF"/>
<path d="M498.159 321.202H386.048V329.56H498.159V321.202Z" fill="#15354E"/>
<path d="M498.16 280.854H386.049V289.212H498.16V280.854Z" fill="#15354E"/>
<path d="M503.203 365.009H380.572C377.402 365.009 374.808 362.415 374.808 359.245V333.307C374.808 330.137 377.402 327.543 380.572 327.543H503.203C506.373 327.543 508.967 330.137 508.967 333.307V359.245C508.967 362.415 506.373 365.009 503.203 365.009Z" fill="#D6E0EA"/>
<path d="M430.431 327.543L424.379 365.009H380.572C377.402 365.009 374.808 362.415 374.808 359.245V333.307C374.808 330.137 377.402 327.543 380.572 327.543H430.431Z" fill="#EDEDED"/>
<path d="M500.666 356.776V335.738H382.935V356.776H500.666Z" fill="#15354E"/>
<path d="M491.387 346.276C491.387 348.293 489.802 349.878 487.784 349.878C485.767 349.878 484.182 348.293 484.182 346.276C484.182 344.259 485.767 342.673 487.784 342.673C489.802 342.673 491.387 344.259 491.387 346.276Z" fill="#0088FF"/>
<path d="M472.653 349.446C474.404 349.446 475.823 348.027 475.823 346.276C475.823 344.525 474.404 343.106 472.653 343.106C470.902 343.106 469.483 344.525 469.483 346.276C469.483 348.027 470.902 349.446 472.653 349.446Z" fill="#0088FF"/>
<path d="M460.693 346.276C460.693 348.005 459.252 349.446 457.522 349.446C455.793 349.446 454.352 348.005 454.352 346.276C454.352 344.547 455.793 343.106 457.522 343.106C459.252 343.25 460.693 344.547 460.693 346.276Z" fill="white"/>
<path d="M445.562 346.276C445.562 348.005 444.121 349.446 442.392 349.446C440.663 349.446 439.222 348.005 439.222 346.276C439.222 344.547 440.663 343.106 442.392 343.106C444.265 343.25 445.562 344.547 445.562 346.276Z" fill="#0088FF"/>
<path d="M430.431 346.276C430.431 348.005 428.99 349.446 427.261 349.446C425.532 349.446 424.091 348.005 424.091 346.276C424.091 344.547 425.532 343.106 427.261 343.106C429.134 343.25 430.431 344.547 430.431 346.276Z" fill="white"/>
<path d="M503.203 323.94H380.572C377.402 323.94 374.808 321.346 374.808 318.176V292.238C374.808 289.068 377.402 286.474 380.572 286.474H503.203C506.373 286.474 508.967 289.068 508.967 292.238V318.176C508.967 321.346 506.373 323.94 503.203 323.94Z" fill="#D6E0EA"/>
<path d="M437.06 286.474L431.008 323.94H380.428C377.258 323.94 374.664 321.346 374.664 318.176V292.238C374.664 289.068 377.258 286.474 380.428 286.474H437.06Z" fill="#EDEDED"/>
<path d="M500.647 315.689V294.65H382.917V315.689H500.647Z" fill="#15354E"/>
<path d="M503.203 283.592H380.572C377.402 283.592 374.808 280.998 374.808 277.828V251.889C374.808 248.719 377.402 246.125 380.572 246.125H503.203C506.373 246.125 508.967 248.719 508.967 251.889V277.828C508.967 280.998 506.373 283.592 503.203 283.592Z" fill="#D6E0EA"/>
<path d="M443.689 245.981L437.636 283.448H380.572C377.402 283.448 374.808 280.854 374.808 277.684V251.745C374.808 248.575 377.402 245.981 380.572 245.981H443.689Z" fill="#EDEDED"/>
<path d="M500.697 275.247V254.208L382.966 254.208V275.247H500.697Z" fill="#15354E"/>
<path d="M491.387 305.207C491.387 307.224 489.802 308.81 487.784 308.81C485.767 308.81 484.182 307.224 484.182 305.207C484.182 303.19 485.767 301.604 487.784 301.604C489.802 301.604 491.387 303.19 491.387 305.207Z" fill="#0088FF"/>
<path d="M475.823 305.207C475.823 306.936 474.382 308.377 472.653 308.377C470.924 308.377 469.483 306.936 469.483 305.207C469.483 303.478 470.924 302.037 472.653 302.037C474.382 302.181 475.823 303.478 475.823 305.207Z" fill="#0088FF"/>
<path d="M460.693 305.207C460.693 306.936 459.252 308.377 457.522 308.377C455.793 308.377 454.352 306.936 454.352 305.207C454.352 303.478 455.793 302.037 457.522 302.037C459.252 302.181 460.693 303.478 460.693 305.207Z" fill="white"/>
<path d="M445.562 305.207C445.562 306.936 444.121 308.377 442.392 308.377C440.663 308.377 439.222 306.936 439.222 305.207C439.222 303.478 440.663 302.037 442.392 302.037C444.265 302.181 445.562 303.478 445.562 305.207Z" fill="#0088FF"/>
<path d="M430.431 305.207C430.431 306.936 428.99 308.377 427.261 308.377C425.532 308.377 424.091 306.936 424.091 305.207C424.091 303.478 425.532 302.037 427.261 302.037C429.134 302.181 430.431 303.478 430.431 305.207Z" fill="white"/>
<path d="M491.387 264.714C491.387 266.732 489.802 268.317 487.784 268.317C485.767 268.317 484.182 266.732 484.182 264.714C484.182 262.697 485.767 261.112 487.784 261.112C489.802 261.112 491.387 262.841 491.387 264.714Z" fill="#0088FF"/>
<path d="M475.823 264.715C475.823 266.444 474.382 267.885 472.653 267.885C470.924 267.885 469.483 266.444 469.483 264.715C469.483 262.985 470.924 261.544 472.653 261.544C474.382 261.688 475.823 262.985 475.823 264.715Z" fill="white"/>
<path d="M460.693 264.715C460.693 266.444 459.252 267.885 457.522 267.885C455.793 267.885 454.352 266.444 454.352 264.715C454.352 262.985 455.793 261.544 457.522 261.544C459.252 261.688 460.693 262.985 460.693 264.715Z" fill="white"/>
<path d="M445.562 264.715C445.562 266.444 444.121 267.885 442.392 267.885C440.663 267.885 439.222 266.444 439.222 264.715C439.222 262.985 440.663 261.544 442.392 261.544C444.265 261.688 445.562 262.985 445.562 264.715Z" fill="#0088FF"/>
<path d="M430.431 264.715C430.431 266.444 428.99 267.885 427.261 267.885C425.532 267.885 424.091 266.444 424.091 264.715C424.091 262.985 425.532 261.544 427.261 261.544C429.134 261.688 430.431 262.985 430.431 264.715Z" fill="#0088FF"/>
<path d="M389.218 145.11H198.139C189.782 145.11 183.009 138.337 183.009 129.98V12.6809C183.009 5.61996 188.629 0 195.69 0H391.524C398.585 0 404.205 5.61996 404.205 12.6809V129.98C404.349 138.337 397.576 145.11 389.218 145.11Z" fill="#1D95FF"/>
<path opacity="0.2" d="M291.806 0H195.835C188.774 0 183.154 5.61996 183.154 12.6809V129.98C183.154 138.337 189.927 145.11 198.284 145.11H262.698L291.806 0Z" fill="white"/>
<path d="M391.668 169.031H195.834C188.773 169.031 183.153 163.411 183.153 156.35V23.9208H404.349V156.35C404.349 163.411 398.585 169.031 391.668 169.031Z" fill="#D6E0EA"/>
<path d="M195.834 163.123C192.088 163.123 189.062 160.097 189.062 156.35V23.9208H398.297V156.35C398.297 160.097 395.271 163.123 391.524 163.123H195.834Z" fill="#F3F9FF"/>
<path d="M333.019 121.478V108.509L324.084 107.212C323.364 104.33 322.211 101.448 320.77 98.9978L326.102 91.7927L316.879 82.5702L309.674 87.902C307.225 86.3169 304.487 85.1641 301.461 84.4436L300.164 75.5093H287.194L285.898 84.4436C283.016 85.1641 280.134 86.3169 277.684 87.902L270.479 82.5702L261.256 91.7927L266.588 98.9978C265.003 101.448 263.85 104.185 263.274 107.212L254.339 108.509V121.478L263.274 122.775C263.994 125.657 265.147 128.539 266.588 130.988L261.256 138.193L270.479 147.416L277.684 142.084C280.134 143.669 282.871 144.822 285.898 145.543L287.194 154.477H300.164L301.461 145.543C304.343 144.822 307.225 143.669 309.674 142.084L316.879 147.416L326.102 138.193L320.77 130.988C322.355 128.395 323.508 125.657 324.084 122.775L333.019 121.478ZM293.679 134.591C282.727 134.591 274.081 125.801 274.081 114.993C274.081 104.185 282.871 95.2512 293.679 95.2512C304.487 95.2512 313.277 104.041 313.277 114.993C313.277 125.801 304.487 134.591 293.679 134.591Z" fill="#15354E"/>
<path d="M293.679 134.591C282.871 134.591 274.081 125.801 274.081 114.993C274.081 104.185 282.727 95.3952 293.679 95.2511V75.6533H287.194L285.897 84.5876C283.015 85.3081 280.133 86.4609 277.683 88.0461L270.478 82.7143L261.256 91.9368L266.587 99.1419C265.002 101.592 263.85 104.33 263.273 107.356L254.339 108.653V121.622L263.273 122.919C263.994 125.801 265.146 128.683 266.587 131.132L261.256 138.337L270.478 147.56L277.683 142.228C280.133 143.813 282.871 144.966 285.897 145.687L287.194 154.621H293.679V134.591Z" fill="#15354E"/>
<path d="M381.293 69.0246V59.8021L374.952 58.9375C374.52 56.776 373.655 54.9026 372.503 53.0293L376.393 47.9858L369.909 41.3571L364.721 45.2478C362.992 44.095 360.975 43.3745 358.813 42.7981L357.948 36.4576H348.582L347.717 42.7981C345.556 43.2304 343.682 44.095 341.809 45.2478L336.765 41.3571L330.137 47.9858L334.028 53.0293C332.875 54.7585 332.154 56.776 331.578 58.9375L325.237 59.8021V69.0246L331.578 69.8892C332.01 72.0507 332.875 73.924 334.028 75.7974L330.137 80.8409L336.765 87.3255L341.809 83.4348C343.538 84.5876 345.556 85.4522 347.717 85.8845L348.582 92.2249H357.804L358.669 85.8845C360.83 85.4522 362.704 84.5876 364.577 83.4348L369.765 87.3255L376.249 80.8409L372.359 75.6533C373.511 73.7799 374.232 71.9066 374.808 69.7451L381.293 69.0246ZM353.337 78.3912C345.556 78.3912 339.359 72.1948 339.359 64.4133C339.359 56.6318 345.556 50.4355 353.337 50.4355C361.119 50.4355 367.315 56.776 367.315 64.4133C367.315 72.0507 360.974 78.3912 353.337 78.3912Z" fill="#15354E"/>
<path d="M266.443 31.1259H196.554V36.89H266.443V31.1259Z" fill="#D6E0EA"/>
<path d="M266.443 44.9597H196.554V50.7238H266.443V44.9597Z" fill="#D6E0EA"/>
<path d="M266.443 58.6494H196.554V64.4134H266.443V58.6494Z" fill="#D6E0EA"/>
<path d="M251.313 72.339H196.554V78.1031H251.313V72.339Z" fill="#D6E0EA"/>
<path d="M251.313 86.0286H196.554V91.7927H251.313V86.0286Z" fill="#D6E0EA"/>
<path d="M351.896 12.1045C351.896 14.8425 349.735 17.004 346.997 17.004C344.259 17.004 342.097 14.8425 342.097 12.1045C342.097 9.36661 344.259 7.20508 346.997 7.20508C349.735 7.34918 351.896 9.51072 351.896 12.1045Z" fill="white"/>
<path d="M371.926 12.1045C371.926 14.8425 369.764 17.004 367.026 17.004C364.288 17.004 362.127 14.8425 362.127 12.1045C362.127 9.36661 364.288 7.20508 367.026 7.20508C369.764 7.20508 371.926 9.51072 371.926 12.1045Z" fill="white"/>
<path d="M391.812 12.1045C391.812 14.8425 389.651 17.004 386.913 17.004C384.175 17.004 382.013 14.8425 382.013 12.1045C382.013 9.36661 384.175 7.20508 386.913 7.20508C389.651 7.34918 391.812 9.51072 391.812 12.1045Z" fill="white"/>
<path d="M340.945 148.136C340.945 150.298 339.215 152.027 337.054 152.027C334.892 152.027 333.163 150.298 333.163 148.136C333.163 145.975 334.892 144.246 337.054 144.246C339.215 144.246 340.945 145.975 340.945 148.136Z" fill="#0088FF"/>
<path d="M357.804 148.136C357.804 150.298 356.075 152.027 353.913 152.027C351.752 152.027 350.022 150.298 350.022 148.136C350.022 145.975 351.752 144.246 353.913 144.246C356.075 144.246 357.804 145.975 357.804 148.136Z" fill="#0088FF"/>
<path d="M376.249 148.136C376.249 151.163 373.799 153.612 370.773 153.612C367.747 153.612 365.297 151.163 365.297 148.136C365.297 145.11 367.747 142.661 370.773 142.661C373.799 142.661 376.249 145.11 376.249 148.136Z" fill="#0088FF"/>
<path d="M391.38 148.136C391.38 150.298 389.651 152.027 387.489 152.027C385.328 152.027 383.599 150.298 383.599 148.136C383.599 145.975 385.328 144.246 387.489 144.246C389.651 144.246 391.38 145.975 391.38 148.136Z" fill="#0088FF"/>
<path d="M203.76 148.136C203.76 150.298 202.03 152.027 199.869 152.027C197.707 152.027 195.978 150.298 195.978 148.136C195.978 145.975 197.707 144.246 199.869 144.246C202.03 144.246 203.76 145.975 203.76 148.136Z" fill="#0088FF"/>
<path d="M220.62 148.136C220.62 150.298 218.891 152.027 216.729 152.027C214.568 152.027 212.838 150.298 212.838 148.136C212.838 145.975 214.568 144.246 216.729 144.246C218.891 144.246 220.62 145.975 220.62 148.136Z" fill="#0088FF"/>
<path d="M237.479 148.136C237.479 150.298 235.75 152.027 233.588 152.027C231.427 152.027 229.698 150.298 229.698 148.136C229.698 145.975 231.427 144.246 233.588 144.246C235.606 144.246 237.479 145.975 237.479 148.136Z" fill="#0088FF"/>
<path d="M254.195 148.136C254.195 150.298 252.466 152.027 250.304 152.027C248.143 152.027 246.414 150.298 246.414 148.136C246.414 145.975 248.143 144.246 250.304 144.246C252.466 144.246 254.195 145.975 254.195 148.136Z" fill="#0088FF"/>
<path d="M169.031 37.7545V27.091L161.682 26.0823C161.105 23.6326 160.097 21.4711 158.944 19.3096L163.411 13.4014L155.918 5.76399L150.01 10.2312C147.992 8.93424 145.687 8.06963 143.237 7.49322L142.228 0.144043H131.565L130.556 7.49322C128.106 8.06963 125.945 9.07834 123.783 10.2312L117.875 5.76399L110.238 13.4014L114.705 19.3096C113.408 21.327 112.543 23.6326 111.967 26.0823L104.618 27.091V37.7545L111.967 38.7633C112.543 41.213 113.408 43.3745 114.705 45.536L110.238 51.4442L117.875 58.9375L123.783 54.4703C125.801 55.7672 128.106 56.7759 130.556 57.3523L131.565 64.7015H142.228L143.237 57.3523C145.687 56.7759 147.848 55.7672 150.01 54.4703L155.918 58.9375L163.411 51.4442L158.944 45.536C160.241 43.3745 161.105 41.213 161.682 38.7633L169.031 37.7545ZM136.896 45.6801C129.547 45.6801 123.495 39.772 123.495 32.2787C123.495 24.9295 129.403 18.8772 136.896 18.8772C144.246 18.8772 150.298 24.9295 150.298 32.2787C150.154 39.772 144.246 45.6801 136.896 45.6801Z" fill="#E4EFF7"/>
<path d="M501.473 185.17V175.948L495.133 175.083C494.701 172.922 493.836 171.049 492.683 169.319L496.574 164.276L490.089 157.647L484.902 161.538C483.172 160.385 481.155 159.665 479.138 159.088L478.273 152.748H469.05L468.186 159.088C466.024 159.52 464.151 160.385 462.422 161.538L457.378 157.647L450.75 164.276L454.64 169.319C453.487 171.049 452.767 173.066 452.191 175.083L445.85 175.948V185.17L452.191 186.035C452.623 188.197 453.487 190.07 454.64 191.943L450.75 196.987L457.378 203.471L462.422 199.581C464.151 200.733 466.168 201.598 468.186 202.03L469.05 208.371H478.273L479.138 202.03C481.299 201.598 483.172 200.733 484.902 199.581L490.089 203.471L496.574 196.987L492.683 191.799C493.836 189.926 494.556 188.053 495.133 186.035L501.473 185.17ZM473.518 192.231C467.033 192.231 461.989 187.044 461.989 180.703C461.989 174.363 467.177 169.175 473.518 169.175C479.858 169.175 485.046 174.363 485.046 180.703C485.046 187.044 479.858 192.231 473.518 192.231Z" fill="#DDE9F2"/>
<path d="M421.065 397.144V390.948L416.886 390.371C416.598 388.93 416.022 387.633 415.301 386.48L417.895 383.166L413.572 378.843L410.114 381.437C408.961 380.716 407.664 380.14 406.223 379.852L405.646 375.673H399.594L399.018 379.852C397.577 380.14 396.28 380.716 395.127 381.437L391.813 378.843L387.49 383.166L390.083 386.48C389.363 387.633 388.787 388.93 388.498 390.371L384.319 390.948V397L388.498 397.576C388.787 399.017 389.363 400.314 390.083 401.467L387.49 404.781L391.813 409.104L395.127 406.51C396.28 407.231 397.577 407.807 399.018 408.096L399.594 412.275H405.646L406.223 408.096C407.664 407.807 408.961 407.231 410.114 406.51L413.572 409.104L417.895 404.781L415.301 401.323C416.022 400.17 416.598 398.873 416.886 397.432L421.065 397.144ZM402.62 401.611C398.441 401.611 394.983 398.153 394.983 393.974C394.983 389.795 398.441 386.336 402.62 386.336C406.799 386.336 410.258 389.795 410.258 393.974C410.258 398.153 406.799 401.611 402.62 401.611Z" fill="#E4EFF7"/>
<path d="M240.505 440.086C240.505 435.907 242.811 433.457 245.837 433.457C248.863 433.457 251.169 435.907 251.169 440.086C251.169 444.265 248.863 446.715 245.837 446.715C242.811 446.715 240.505 444.265 240.505 440.086ZM249.296 440.086C249.296 436.772 247.855 435.043 245.837 435.043C243.82 435.043 242.379 436.772 242.379 440.086C242.379 443.4 243.82 445.13 245.837 445.13C247.855 445.13 249.296 443.4 249.296 440.086Z" fill="#DDE9F2"/>
<path d="M252.898 440.086C252.898 435.907 255.204 433.457 258.23 433.457C261.256 433.457 263.562 435.907 263.562 440.086C263.562 444.265 261.256 446.715 258.23 446.715C255.06 446.715 252.898 444.265 252.898 440.086ZM261.545 440.086C261.545 436.772 260.104 435.043 258.086 435.043C256.069 435.043 254.628 436.772 254.628 440.086C254.628 443.4 256.069 445.13 258.086 445.13C260.248 445.13 261.545 443.4 261.545 440.086Z" fill="#DDE9F2"/>
<path d="M269.182 433.602V446.571H267.308V435.187H264.426V433.602H269.182Z" fill="#DDE9F2"/>
<path d="M272.063 440.086C272.063 435.907 274.369 433.457 277.395 433.457C280.421 433.457 282.727 435.907 282.727 440.086C282.727 444.265 280.421 446.715 277.395 446.715C274.369 446.715 272.063 444.265 272.063 440.086ZM280.71 440.086C280.71 436.772 279.269 435.043 277.251 435.043C275.234 435.043 273.793 436.772 273.793 440.086C273.793 443.4 275.234 445.13 277.251 445.13C279.413 445.13 280.71 443.4 280.71 440.086Z" fill="#DDE9F2"/>
<path d="M288.347 433.602V446.571H286.474V435.187H283.592V433.602H288.347Z" fill="#DDE9F2"/>
<path d="M291.229 440.086C291.229 435.907 293.535 433.457 296.561 433.457C299.587 433.457 301.893 435.907 301.893 440.086C301.893 444.265 299.587 446.715 296.561 446.715C293.535 446.715 291.229 444.265 291.229 440.086ZM299.876 440.086C299.876 436.772 298.435 435.043 296.417 435.043C294.4 435.043 292.959 436.772 292.959 440.086C292.959 443.4 294.4 445.13 296.417 445.13C298.579 445.13 299.876 443.4 299.876 440.086Z" fill="#DDE9F2"/>
<path d="M307.513 433.602V446.571H305.639V435.187H302.757V433.602H307.513Z" fill="#DDE9F2"/>
<path d="M43.0864 207.65C43.0864 202.319 45.9685 199.292 49.7151 199.292C53.4617 199.292 56.3438 202.319 56.3438 207.65C56.3438 212.982 53.4617 216.008 49.7151 216.008C45.9685 216.008 43.0864 212.982 43.0864 207.65ZM54.0381 207.65C54.0381 203.471 52.3089 201.454 49.7151 201.454C47.1213 201.454 45.392 203.615 45.392 207.65C45.392 211.829 47.1213 213.847 49.7151 213.847C52.3089 213.847 54.0381 211.829 54.0381 207.65Z" fill="#DDE9F2"/>
<path d="M58.6489 207.65C58.6489 202.319 61.531 199.292 65.2776 199.292C69.0242 199.292 71.9063 202.319 71.9063 207.65C71.9063 212.982 69.0242 216.008 65.2776 216.008C61.3869 216.008 58.6489 212.982 58.6489 207.65ZM69.6006 207.65C69.6006 203.471 67.8714 201.454 65.2776 201.454C62.6838 201.454 60.9545 203.615 60.9545 207.65C60.9545 211.829 62.6838 213.847 65.2776 213.847C67.7273 213.847 69.6006 211.829 69.6006 207.65Z" fill="#DDE9F2"/>
<path d="M79.1113 199.437V215.72H76.8057V201.454H73.0591V199.437H79.1113Z" fill="#DDE9F2"/>
<path d="M82.7144 207.65C82.7144 202.319 85.5964 199.292 89.343 199.292C93.0897 199.292 95.9717 202.319 95.9717 207.65C95.9717 212.982 93.0897 216.008 89.343 216.008C85.5964 216.008 82.7144 212.982 82.7144 207.65ZM93.6661 207.65C93.6661 203.471 91.9369 201.454 89.343 201.454C86.7492 201.454 85.02 203.615 85.02 207.65C85.02 211.829 86.7492 213.847 89.343 213.847C91.9369 213.847 93.6661 211.829 93.6661 207.65Z" fill="#DDE9F2"/>
<path d="M103.177 199.437V215.72H100.871V201.454H97.1245V199.437H103.177Z" fill="#DDE9F2"/>
<path d="M111.823 199.437V215.72H109.517V201.454H105.771V199.437H111.823Z" fill="#DDE9F2"/>
<path d="M115.425 207.65C115.425 202.319 118.307 199.292 122.054 199.292C125.801 199.292 128.683 202.319 128.683 207.65C128.683 212.982 125.801 216.008 122.054 216.008C118.307 216.008 115.425 212.982 115.425 207.65ZM126.377 207.65C126.377 203.471 124.648 201.454 122.054 201.454C119.46 201.454 117.731 203.615 117.731 207.65C117.731 211.829 119.46 213.847 122.054 213.847C124.648 213.847 126.377 211.829 126.377 207.65Z" fill="#DDE9F2"/>
<path d="M130.988 207.65C130.988 202.319 133.87 199.292 137.617 199.292C141.364 199.292 144.246 202.319 144.246 207.65C144.246 212.982 141.364 216.008 137.617 216.008C133.726 216.008 130.988 212.982 130.988 207.65ZM141.94 207.65C141.94 203.471 140.211 201.454 137.617 201.454C135.023 201.454 133.294 203.615 133.294 207.65C133.294 211.829 135.023 213.847 137.617 213.847C140.211 213.847 141.94 211.829 141.94 207.65Z" fill="#DDE9F2"/>
<path d="M146.551 207.65C146.551 202.319 149.433 199.292 153.179 199.292C156.926 199.292 159.808 202.319 159.808 207.65C159.808 212.982 156.926 216.008 153.179 216.008C149.289 216.008 146.551 212.982 146.551 207.65ZM157.502 207.65C157.502 203.471 155.773 201.454 153.179 201.454C150.586 201.454 148.856 203.615 148.856 207.65C148.856 211.829 150.586 213.847 153.179 213.847C155.629 213.847 157.502 211.829 157.502 207.65Z" fill="#DDE9F2"/>
<path d="M167.013 199.437V215.72H164.708V201.454H160.961V199.437H167.013Z" fill="#DDE9F2"/>
<path d="M170.616 207.65C170.616 202.319 173.498 199.292 177.245 199.292C180.992 199.292 183.874 202.319 183.874 207.65C183.874 212.982 180.992 216.008 177.245 216.008C173.354 216.008 170.616 212.982 170.616 207.65ZM181.568 207.65C181.568 203.471 179.839 201.454 177.245 201.454C174.651 201.454 172.922 203.615 172.922 207.65C172.922 211.829 174.651 213.847 177.245 213.847C179.839 213.847 181.568 211.829 181.568 207.65Z" fill="#DDE9F2"/>
<path d="M191.079 199.437V215.72H188.773V201.454H185.026V199.437H191.079Z" fill="#DDE9F2"/>
<path d="M300.02 226.816C300.02 221.484 302.902 218.458 306.648 218.458C310.395 218.458 313.277 221.484 313.277 226.816C313.277 232.148 310.395 235.174 306.648 235.174C302.902 235.174 300.02 232.148 300.02 226.816ZM310.971 226.816C310.971 222.637 309.242 220.619 306.648 220.619C304.054 220.619 302.325 222.781 302.325 226.816C302.325 230.995 304.054 233.012 306.648 233.012C309.242 233.012 310.971 230.995 310.971 226.816Z" fill="#DDE9F2"/>
<path d="M320.482 218.602V234.885H318.176V220.619H314.43V218.602H320.482Z" fill="#DDE9F2"/>
<path d="M329.128 218.602V234.885H326.823V220.619H323.076V218.602H329.128Z" fill="#DDE9F2"/>
<path d="M332.731 226.816C332.731 221.484 335.613 218.458 339.36 218.458C343.106 218.458 345.988 221.484 345.988 226.816C345.988 232.148 343.106 235.174 339.36 235.174C335.613 235.174 332.731 232.148 332.731 226.816ZM343.683 226.816C343.683 222.637 341.953 220.619 339.36 220.619C336.766 220.619 335.037 222.781 335.037 226.816C335.037 230.995 336.766 233.012 339.36 233.012C341.953 233.012 343.683 230.995 343.683 226.816Z" fill="#DDE9F2"/>
<path d="M348.294 226.816C348.294 221.484 351.176 218.458 354.923 218.458C358.669 218.458 361.551 221.484 361.551 226.816C361.551 232.148 358.669 235.174 354.923 235.174C351.176 235.174 348.294 232.148 348.294 226.816ZM359.246 226.816C359.246 222.637 357.516 220.619 354.923 220.619C352.329 220.619 350.6 222.781 350.6 226.816C350.6 230.995 352.329 233.012 354.923 233.012C357.516 233.012 359.246 230.995 359.246 226.816Z" fill="#DDE9F2"/>
<path d="M363.856 226.816C363.856 221.484 366.738 218.458 370.485 218.458C374.232 218.458 377.114 221.484 377.114 226.816C377.114 232.148 374.232 235.174 370.485 235.174C366.594 235.174 363.856 232.148 363.856 226.816ZM374.808 226.816C374.808 222.637 373.079 220.619 370.485 220.619C367.891 220.619 366.162 222.781 366.162 226.816C366.162 230.995 367.891 233.012 370.485 233.012C373.079 233.012 374.808 230.995 374.808 226.816Z" fill="#DDE9F2"/>
<path d="M420.344 31.126C420.344 33.2875 418.615 35.0167 416.453 35.0167C414.292 35.0167 412.562 33.2875 412.562 31.126C412.562 28.9644 414.292 27.2352 416.453 27.2352C418.615 27.2352 420.344 29.1085 420.344 31.126Z" fill="#DDE9F2"/>
<path d="M437.204 31.126C437.204 33.2875 435.475 35.0167 433.314 35.0167C431.152 35.0167 429.423 33.2875 429.423 31.126C429.423 28.9644 431.152 27.2352 433.314 27.2352C435.475 27.2352 437.204 29.1085 437.204 31.126Z" fill="#DDE9F2"/>
<path d="M455.648 31.1259C455.648 34.1521 453.199 36.6018 450.173 36.6018C447.146 36.6018 444.697 34.1521 444.697 31.1259C444.697 28.0998 447.146 25.6501 450.173 25.6501C453.199 25.6501 455.648 28.0998 455.648 31.1259Z" fill="#DDE9F2"/>
<path d="M470.78 31.126C470.78 33.2875 469.05 35.0167 466.889 35.0167C464.727 35.0167 462.998 33.2875 462.998 31.126C462.998 28.9644 464.727 27.2352 466.889 27.2352C469.05 27.2352 470.78 29.1085 470.78 31.126Z" fill="#DDE9F2"/>
<path d="M188.341 381.149C188.341 378.987 190.071 377.258 192.232 377.258C194.394 377.258 196.123 378.987 196.123 381.149C196.123 383.31 194.394 385.039 192.232 385.039C190.071 385.039 188.341 383.31 188.341 381.149Z" fill="#DDE9F2"/>
<path d="M171.481 381.149C171.481 378.987 173.21 377.258 175.372 377.258C177.533 377.258 179.262 378.987 179.262 381.149C179.262 383.31 177.533 385.039 175.372 385.039C173.21 385.039 171.481 383.31 171.481 381.149Z" fill="#DDE9F2"/>
<path d="M153.037 381.149C153.037 378.123 155.486 375.673 158.512 375.673C161.539 375.673 163.988 378.123 163.988 381.149C163.988 384.175 161.539 386.624 158.512 386.624C155.63 386.624 153.037 384.175 153.037 381.149Z" fill="#DDE9F2"/>
<path d="M137.906 381.149C137.906 378.987 139.635 377.258 141.796 377.258C143.958 377.258 145.687 378.987 145.687 381.149C145.687 383.31 143.958 385.039 141.796 385.039C139.635 385.039 137.906 383.31 137.906 381.149Z" fill="#DDE9F2"/>
<path d="M389.651 238.488H383.022V242.379H389.651V238.488Z" fill="#15354E"/>
<path d="M389.651 231.139H383.022V235.03H389.651V231.139Z" fill="#15354E"/>
<path d="M389.651 223.79H383.022V227.681H389.651V223.79Z" fill="#15354E"/>
<path d="M389.651 216.441H383.022V220.331H389.651V216.441Z" fill="#15354E"/>
<path d="M389.651 209.091H383.022V212.982H389.651V209.091Z" fill="#15354E"/>
<path d="M389.651 201.742H383.022V205.633H389.651V201.742Z" fill="#15354E"/>
<path d="M389.651 194.393H383.022V198.284H389.651V194.393Z" fill="#15354E"/>
<path d="M389.651 187.044H383.022V190.935H389.651V187.044Z" fill="#15354E"/>
<path d="M389.651 179.839H383.022V183.73H389.651V179.839Z" fill="#15354E"/>
<path d="M389.651 172.49H383.022V176.38H389.651V172.49Z" fill="#15354E"/>
<path d="M296.993 238.488H290.364V242.379H296.993V238.488Z" fill="#15354E"/>
<path d="M296.993 231.139H290.364V235.03H296.993V231.139Z" fill="#15354E"/>
<path d="M296.993 223.79H290.364V227.681H296.993V223.79Z" fill="#15354E"/>
<path d="M296.993 216.441H290.364V220.331H296.993V216.441Z" fill="#15354E"/>
<path d="M296.993 209.091H290.364V212.982H296.993V209.091Z" fill="#15354E"/>
<path d="M296.993 201.742H290.364V205.633H296.993V201.742Z" fill="#15354E"/>
<path d="M296.993 194.393H290.364V198.284H296.993V194.393Z" fill="#15354E"/>
<path d="M296.993 187.044H290.364V190.935H296.993V187.044Z" fill="#15354E"/>
<path d="M296.993 179.839H290.364V183.73H296.993V179.839Z" fill="#15354E"/>
<path d="M296.993 172.49H290.364V176.38H296.993V172.49Z" fill="#15354E"/>
<path d="M204.48 238.488H197.851V242.379H204.48V238.488Z" fill="#15354E"/>
<path d="M204.48 231.139H197.851V235.03H204.48V231.139Z" fill="#15354E"/>
<path d="M204.48 223.79H197.851V227.681H204.48V223.79Z" fill="#15354E"/>
<path d="M204.48 216.441H197.851V220.331H204.48V216.441Z" fill="#15354E"/>
<path d="M204.48 209.091H197.851V212.982H204.48V209.091Z" fill="#15354E"/>
<path d="M204.48 201.742H197.851V205.633H204.48V201.742Z" fill="#15354E"/>
<path d="M204.48 194.393H197.851V198.284H204.48V194.393Z" fill="#15354E"/>
<path d="M204.48 187.044H197.851V190.935H204.48V187.044Z" fill="#15354E"/>
<path d="M204.48 179.839H197.851V183.73H204.48V179.839Z" fill="#15354E"/>
<path d="M204.48 172.49H197.851V176.38H204.48V172.49Z" fill="#15354E"/>
</svg>
